<svg width="170" height="173" viewBox="0 0 170 173" fill="none" xmlns="http://www.w3.org/2000/svg">
<path d="M85.2628 0H84.7376C37.9389 0.000508045 0.00099847 38.6079 0 86.233V173H48.1887V123.96V110.869V86.234C48.1887 76.2987 51.9903 66.9583 58.8937 59.9331C65.7972 52.9078 74.9756 49.039 84.7387 49.039H85.2608C95.0239 49.039 104.202 52.9078 111.106 59.9331C118.009 66.9583 121.811 76.2987 121.811 86.234V123.96V173H170V86.2315C169.998 38.6069 132.062 0.000508045 85.2628 0Z" fill="#96F21B"/>
<path d="M84.8862 156.409C98.5514 156.409 109.629 145.136 109.629 131.23C109.629 117.323 98.5514 106.05 84.8862 106.05C71.2209 106.05 60.1431 117.323 60.1431 131.23C60.1431 145.136 71.2209 156.409 84.8862 156.409Z" fill="#96F21B"/>
</svg>
