<svg width="85" height="85" viewBox="0 0 85 85" fill="none" xmlns="http://www.w3.org/2000/svg">
<path d="M34.2016 14.1668L30.0522 18.3162C28.9064 19.462 28.3335 20.9636 28.3335 22.4654C28.3335 23.9672 28.9064 25.469 30.0522 26.6148C31.198 27.7606 32.6996 28.3337 34.2016 28.3337C35.7037 28.3337 37.2052 27.7606 38.351 26.6148L42.5005 22.4654L46.6497 26.6148C47.7954 27.7606 49.297 28.3337 50.7991 28.3337C52.3011 28.3337 53.8027 27.7606 54.9485 26.6148C56.0943 25.469 56.6672 23.9672 56.6672 22.4654C56.6672 20.9636 56.0943 19.462 54.9485 18.3162L50.7991 14.1668L54.9485 10.0173C56.0943 8.87152 56.6672 7.36995 56.6672 5.86813C56.6672 4.36631 56.0943 2.86448 54.9485 1.71869C52.6569 -0.572897 48.9415 -0.572897 46.6499 1.71869L42.5007 5.86788L38.3513 1.71869C36.0597 -0.572897 32.3443 -0.572897 30.0527 1.71869C28.9069 2.86448 28.334 4.36631 28.334 5.86813C28.334 7.36995 28.9069 8.87152 30.0527 10.0173L34.2016 14.1668Z" fill="#96F21B"/>
<path d="M14.1667 22.4654L18.3162 26.6148C19.4619 27.7606 20.9638 28.3337 22.4656 28.3337C23.9674 28.3337 25.469 27.7606 26.6148 26.6148C27.7606 25.469 28.3335 23.9672 28.3335 22.4654C28.3335 20.9636 27.7606 19.462 26.6148 18.3162L22.4653 14.1668L26.6148 10.0173C27.7606 8.87152 28.3335 7.36995 28.3335 5.86813C28.3335 4.36631 27.7606 2.86448 26.6148 1.71869C24.3232 -0.572897 20.608 -0.572897 18.3162 1.71869L14.1667 5.86813L10.0173 1.71869C7.72572 -0.572897 4.01027 -0.572897 1.71869 1.71869C-0.572896 4.01028 -0.572896 7.72573 1.71869 10.0173L5.86812 14.1668L1.71869 18.3162C-0.572896 20.6078 -0.572896 24.323 1.71869 26.6148C2.86448 27.7606 4.36605 28.3337 5.86787 28.3337C7.36969 28.3337 8.87151 27.7606 10.0173 26.6148L14.1667 22.4654Z" fill="#96F21B"/>
<path d="M50.7986 28.3335C49.2968 28.3335 47.795 28.9062 46.6492 30.0519L42.5 34.2011L38.3506 30.0519C37.2048 28.9062 35.7029 28.3335 34.2011 28.3335C32.6993 28.3335 31.1975 28.9062 30.0517 30.0519C28.9059 31.1977 28.333 32.6996 28.333 34.2014C28.333 35.7032 28.9059 37.205 30.0517 38.3508L34.2011 42.5L30.0517 46.6494C28.9059 47.7952 28.333 49.2971 28.333 50.7989C28.333 52.3007 28.9059 53.8025 30.0517 54.9483C31.1975 56.0941 32.6991 56.667 34.2011 56.667C35.7032 56.667 37.2048 56.0941 38.3506 54.9483L42.5 50.7989L46.6492 54.9483C47.795 56.0941 49.2965 56.667 50.7986 56.667C52.3007 56.667 53.8022 56.0941 54.948 54.9483C56.0938 53.8025 56.6667 52.3009 56.6667 50.7989C56.6667 49.2968 56.0938 47.7952 54.948 46.6494L50.7988 42.5L54.948 38.3508C56.0938 37.205 56.6667 35.7034 56.6667 34.2014C56.6667 32.6993 56.0938 31.1977 54.948 30.0519C53.8022 28.9062 52.3004 28.3335 50.7986 28.3335Z" fill="#96F21B"/>
<path d="M83.2808 18.3162L79.1314 14.1668L83.2808 10.0173C85.5724 7.72597 85.5724 4.01052 83.2808 1.71869C80.989 -0.572897 77.2738 -0.572897 74.9822 1.71869L70.8327 5.86813L66.6833 1.71869C64.392 -0.572897 60.6765 -0.572897 58.3847 1.71869C57.2389 2.86448 56.666 4.36631 56.666 5.86813C56.666 7.36995 57.2389 8.87152 58.3847 10.0173L62.5341 14.1668L58.3847 18.3162C57.2389 19.462 56.666 20.9636 56.666 22.4654C56.666 23.9672 57.2389 25.469 58.3847 26.6148C59.5305 27.7606 61.0321 28.3337 62.5341 28.3337C64.0362 28.3337 65.5378 27.7606 66.6833 26.6148L70.8327 22.4654L74.9822 26.6148C76.128 27.7606 77.6295 28.3337 79.1316 28.3337C80.6337 28.3337 82.1352 27.7606 83.281 26.6148C85.5726 24.3232 85.5724 20.608 83.2808 18.3162Z" fill="#96F21B"/>
<path d="M70.8327 34.2014L66.6833 30.0519C65.5378 28.9062 64.0359 28.3335 62.5341 28.3335C61.0323 28.3335 59.5305 28.9062 58.3847 30.0519C57.2389 31.1977 56.666 32.6996 56.666 34.2014C56.666 35.7032 57.2389 37.205 58.3847 38.3508L62.5341 42.5L58.3847 46.6494C57.2389 47.7952 56.666 49.2971 56.666 50.7989C56.666 52.3007 57.2389 53.8025 58.3847 54.9483C59.5305 56.0941 61.0321 56.667 62.5341 56.667C64.0362 56.667 65.5378 56.0941 66.6833 54.9483L70.8327 50.7989L74.9822 54.9483C76.128 56.0941 77.6295 56.667 79.1316 56.667C80.6337 56.667 82.1352 56.0941 83.281 54.9483C85.5726 52.6567 85.5726 48.9415 83.281 46.6497L79.1316 42.5003L83.281 38.3511C85.5726 36.0595 85.5726 32.344 83.281 30.0524C82.1352 28.9066 80.6334 28.334 79.1316 28.334C77.6298 28.334 76.128 28.9066 74.9822 30.0524L70.8327 34.2014Z" fill="#96F21B"/>
<path d="M14.1667 50.7984L18.3162 54.9478C19.4619 56.0936 20.9638 56.6665 22.4656 56.6665C23.9674 56.6665 25.469 56.0936 26.6148 54.9478C27.7606 53.802 28.3335 52.3005 28.3335 50.7984C28.3335 49.2963 27.7606 47.7947 26.6148 46.649L22.4656 42.4995L26.6148 38.3503C27.7606 37.2045 28.3335 35.703 28.3335 34.2009C28.3335 32.6988 27.7606 31.1972 26.6148 30.0515C25.469 28.9057 23.9674 28.333 22.4656 28.333C20.9638 28.333 19.4619 28.9057 18.3162 30.0515L14.1667 34.2009L10.0173 30.0515C8.87151 28.9057 7.36969 28.333 5.86787 28.333C4.36605 28.333 2.86448 28.9057 1.71869 30.0515C-0.572896 32.343 -0.572896 36.0585 1.71869 38.3501L5.86812 42.4993L1.71869 46.6487C-0.572896 48.9405 -0.572896 52.6558 1.71869 54.9473C2.86448 56.0931 4.36605 56.666 5.86787 56.666C7.36969 56.666 8.87151 56.0931 10.0173 54.9473L14.1667 50.7984Z" fill="#96F21B"/>
<path d="M50.7988 70.8325L54.948 66.6833C56.0938 65.5375 56.6667 64.036 56.6667 62.5339C56.6667 61.0318 56.0938 59.5303 54.948 58.3845C53.8022 57.2387 52.3004 56.6658 50.7986 56.6658C49.2968 56.6658 47.795 57.2387 46.6492 58.3845L42.5 62.5337L38.3505 58.3845C37.2048 57.2387 35.7029 56.6658 34.2011 56.6658C32.6993 56.6658 31.1975 57.2387 30.0517 58.3845C28.9059 59.5303 28.333 61.0321 28.333 62.5339C28.333 64.0357 28.9059 65.5375 30.0517 66.6833L34.2011 70.8325L30.0517 74.982C28.9059 76.1278 28.333 77.6296 28.333 79.1314C28.333 80.6332 28.9059 82.1348 30.0517 83.2806C32.3433 85.5724 36.0587 85.5724 38.3503 83.2806L42.4997 79.1312L46.6489 83.2806C48.9405 85.5722 52.656 85.5722 54.9475 83.2806C56.0933 82.1345 56.6662 80.6332 56.6662 79.1312C56.6662 77.6291 56.0933 76.1275 54.9475 74.9817L50.7988 70.8325Z" fill="#96F21B"/>
<path d="M70.8327 62.5344L66.6833 58.3849C65.5378 57.2392 64.0359 56.6663 62.5341 56.6663C61.0323 56.6663 59.5305 57.2392 58.3847 58.3849C57.2389 59.5307 56.666 61.0326 56.666 62.5344C56.666 64.0362 57.2389 65.538 58.3847 66.6838L62.5341 70.833L58.3847 74.9824C57.2389 76.1282 56.666 77.6301 56.666 79.1319C56.666 80.6337 57.2389 82.1353 58.3847 83.2811C60.6763 85.5729 64.3917 85.5729 66.6833 83.2811L70.8327 79.1316L74.9822 83.2811C77.2738 85.5727 80.989 85.5727 83.2808 83.2811C85.5724 80.9895 85.5724 77.274 83.2808 74.9824L79.1314 70.833L83.2808 66.6838C85.5724 64.3922 85.5724 60.6768 83.2808 58.3852C82.135 57.2394 80.6332 56.6665 79.1314 56.6665C77.6295 56.6665 76.1277 57.2394 74.9819 58.3852L70.8327 62.5344Z" fill="#96F21B"/>
<path d="M22.4656 70.8325L26.6148 66.6833C27.7606 65.5375 28.3335 64.036 28.3335 62.5339C28.3335 61.0318 27.7606 59.5303 26.6148 58.3845C25.469 57.2387 23.9674 56.6658 22.4656 56.6658C20.9638 56.6658 19.4619 57.2387 18.3162 58.3845L14.1667 62.5339L10.0173 58.3845C8.87151 57.2387 7.36969 56.6658 5.86787 56.6658C4.36606 56.6658 2.86448 57.2387 1.71869 58.3845C-0.572896 60.6761 -0.572896 64.3915 1.71869 66.6831L5.86812 70.8323L1.71869 74.9817C-0.572896 77.2733 -0.572896 80.9888 1.71869 83.2803C4.01003 85.5722 7.72547 85.5722 10.0173 83.2803L14.1667 79.1309L18.3162 83.2803C20.6077 85.5719 24.3229 85.5719 26.6148 83.2803C27.7606 82.1343 28.3335 80.633 28.3335 79.1309C28.3335 77.6288 27.7606 76.1273 26.6148 74.9815L22.4656 70.8325Z" fill="#96F21B"/>
</svg>
