<svg width="85" height="85" viewBox="0 0 85 85" fill="none" xmlns="http://www.w3.org/2000/svg">
<path d="M35.3377 33.0539C32.059 27.5851 24.799 25.5343 19.1783 28.7244C13.5577 31.9146 11.4499 38.9784 14.7286 44.4471L31.5906 73.158C34.8693 78.6268 42.1293 80.6776 47.75 77.4875C53.3707 74.2974 55.4784 67.2336 52.1997 61.7648L35.3377 33.0539ZM81.9424 61.5369L65.0804 32.826C61.8017 27.3573 54.5416 25.3065 48.921 28.4966C43.3003 31.6867 41.1926 38.7505 44.4713 44.2192L61.3333 72.9302C64.612 78.3989 71.872 80.4497 77.4927 77.2596C83.1133 74.2974 85.2211 67.2336 81.9424 61.5369ZM42.3635 28.4966C48.6868 28.4966 53.8391 23.4836 53.8391 17.3312C53.8391 11.1789 48.6868 5.93799 42.3635 5.93799C35.8061 5.93799 30.6538 11.1789 30.6538 17.3312C30.6538 23.4836 35.8061 28.4966 42.3635 28.4966ZM13.0893 56.5239C6.76604 56.5239 1.61377 61.537 1.61377 67.6893C1.61377 73.8416 6.76604 78.8547 13.0893 78.8547C19.4125 78.8547 24.5648 73.8416 24.5648 67.6893C24.5648 61.537 19.4125 56.5239 13.0893 56.5239Z" fill="#FF79D7"/>
</svg>
