<svg width="138" height="134" viewBox="0 0 138 134" fill="none" xmlns="http://www.w3.org/2000/svg">
<path d="M68.9998 0C30.8918 0 0 29.9969 0 67C0 104.003 30.8918 134 68.9998 134C107.108 134 138 104.004 138 67C138 29.9965 107.107 0 68.9998 0ZM68.9998 86.6089C49.72 86.6089 33.4582 77.9437 28.39 66.101C33.4586 54.2587 49.7204 45.5931 68.9998 45.5931C88.2792 45.5931 104.542 54.2583 109.61 66.101C104.541 77.9433 88.2792 86.6089 68.9998 86.6089Z" fill="#FF79D7"/>
<path d="M68.9995 79.7029C76.2246 79.7029 82.0816 74.0157 82.0816 67C82.0816 59.9844 76.2246 54.2971 68.9995 54.2971C61.7745 54.2971 55.9175 59.9844 55.9175 67C55.9175 74.0157 61.7745 79.7029 68.9995 79.7029Z" fill="#FF79D7"/>
</svg>
