<svg width="42" height="42" viewBox="0 0 42 42" fill="none" xmlns="http://www.w3.org/2000/svg">
<path d="M16.1825 8.33376V23.8922C15.5572 23.5032 13.9313 22.4141 12.4305 21.1694C10.9296 19.9248 9.80387 20.6508 9.42865 21.1694C8.92841 21.8177 8.45309 23.581 10.5543 25.448C13.1808 27.7818 14.6817 30.5045 16.1825 32.4493C17.6834 34.3941 18.4338 36.3389 26.6886 35.9499C33.2924 35.6388 33.4425 24.7998 32.6921 19.4191C32.6921 18.8357 32.3168 17.6688 30.816 17.6688C29.3151 17.6688 28.9399 18.8357 28.9399 19.4191V17.6688C28.6898 17.1502 27.8893 16.113 26.6886 16.113C25.4879 16.113 24.6875 17.1502 24.4373 17.6688V15.724C24.3123 15.335 23.7619 14.5571 22.5612 14.5571C21.3605 14.5571 20.8102 15.335 20.6851 15.724V8.33376C20.435 7.55584 19.6345 6 18.4338 6C17.2331 6 16.4327 7.55584 16.1825 8.33376Z" fill="#F7F3F3"/>
<path d="M20.6851 19.2246V15.724M20.6851 15.724V8.33376C20.435 7.55584 19.6345 6 18.4338 6C17.2331 6 16.4327 7.55584 16.1825 8.33376V23.8922C15.5572 23.5032 13.9313 22.4141 12.4305 21.1694C10.9296 19.9248 9.80387 20.6508 9.42865 21.1694C8.92841 21.8177 8.45309 23.581 10.5543 25.448C13.1808 27.7818 14.6817 30.5045 16.1825 32.4493C17.6834 34.3941 18.4338 36.3389 26.6886 35.9499C33.2924 35.6388 33.4425 24.7998 32.6921 19.4191C32.6921 18.8357 32.3168 17.6688 30.816 17.6688C29.3151 17.6688 28.9399 18.8357 28.9399 19.4191M20.6851 15.724C20.8102 15.335 21.3605 14.5571 22.5612 14.5571C23.7619 14.5571 24.3123 15.335 24.4373 15.724V17.6688M28.9399 19.4191V17.6688C28.6898 17.1502 27.8893 16.113 26.6886 16.113C25.4879 16.113 24.6875 17.1502 24.4373 17.6688M28.9399 19.4191V21.1694M24.4373 17.6688V19.6136" stroke="#F7F3F3" stroke-width="6" stroke-linejoin="round"/>
<path d="M20.6851 19.2246V15.724M20.6851 15.724V8.33376C20.6851 7.55584 19.6345 6 18.4338 6C17.2331 6 16.1826 7.16688 16.1825 8.33376V23.8922C15.5572 23.5032 13.9313 22.4141 12.4305 21.1694C10.9296 19.9248 9.80387 20.6508 9.42865 21.1694C8.92841 21.8177 8.45309 23.581 10.5543 25.448C13.1808 27.7818 14.6817 30.5045 16.1825 32.4493C17.6834 34.3941 18.4338 36.3389 26.6886 35.9499C33.2924 35.6388 33.4425 24.7998 32.6921 19.4191C32.6921 18.8357 32.3168 17.6688 30.816 17.6688C29.3151 17.6688 28.9399 18.8357 28.9399 19.4191M20.6851 15.724C20.8102 15.335 21.3605 14.5571 22.5612 14.5571C23.7619 14.5571 24.3123 15.335 24.4373 15.724V17.6688M28.9399 19.4191V17.6688C28.6898 17.1502 27.8893 16.113 26.6886 16.113C25.4879 16.113 24.6875 17.1502 24.4373 17.6688M28.9399 19.4191V21.1694M24.4373 17.6688V19.6136" stroke="#201F1F" stroke-width="2" stroke-linecap="round" stroke-linejoin="round"/>
</svg>
