<svg width="105" height="119" viewBox="0 0 105 119" fill="none" xmlns="http://www.w3.org/2000/svg">
<path d="M37.1879 117.345C36.8496 118.144 35.7244 118.162 35.3598 117.375L30.7336 107.39C30.5174 106.923 29.9826 106.697 29.497 106.866L19.1066 110.488C18.2876 110.774 17.5183 109.952 17.8566 109.154L28.4619 84.1219C28.6774 83.6134 29.2643 83.3758 29.7728 83.5913L47.263 91.0014C47.7715 91.2168 48.0091 91.8037 47.7936 92.3122L37.1879 117.345Z" fill="#96F21B"/>
<path d="M66.003 117.151C66.3413 117.95 67.4665 117.968 67.8311 117.181L72.4573 107.196C72.6735 106.729 73.2083 106.503 73.6939 106.672L84.0843 110.294C84.9033 110.58 85.6726 109.759 85.3343 108.96L74.729 83.9281C74.5135 83.4196 73.9266 83.182 73.4181 83.3974L55.928 90.8075C55.4194 91.023 55.1818 91.6099 55.3973 92.1184L66.003 117.151Z" fill="#96F21B"/>
<circle cx="51.5073" cy="51.5073" r="37.5" fill="#201F1F"/>
<circle cx="51.5562" cy="51.5073" r="33.5" fill="#8F5CFB"/>
<path d="M43.7407 2.96631C48.5418 -0.989077 55.4729 -0.989077 60.2739 2.96631L66.1909 7.84131C68.1883 9.48685 70.6316 10.4987 73.2075 10.7476L80.8394 11.4849C87.0311 12.0828 91.9318 16.9836 92.5298 23.1753L93.2671 30.8071C93.5159 33.3831 94.5278 35.8264 96.1733 37.8237L101.048 43.7407C105.004 48.5418 105.004 55.4729 101.048 60.2739L96.1733 66.1909C94.5278 68.1883 93.5159 70.6316 93.2671 73.2075L92.5298 80.8394C91.9318 87.0311 87.0311 91.9318 80.8394 92.5298L73.2075 93.2671C70.6316 93.5159 68.1883 94.5278 66.1909 96.1733L60.2739 101.048C55.4729 105.004 48.5418 105.004 43.7407 101.048L37.8237 96.1733C35.8264 94.5278 33.383 93.5159 30.8071 93.2671L23.1753 92.5298C16.9836 91.9318 12.0828 87.0311 11.4849 80.8394L10.7476 73.2075C10.4987 70.6316 9.48685 68.1883 7.84131 66.1909L2.96631 60.2739C-0.989077 55.4729 -0.989077 48.5418 2.96631 43.7407L7.84131 37.8237C9.48686 35.8264 10.4988 33.383 10.7476 30.8071L11.4849 23.1753C12.0828 16.9836 16.9836 12.0828 23.1753 11.4849L30.8071 10.7476C33.383 10.4988 35.8264 9.48686 37.8237 7.84131L43.7407 2.96631ZM51.5562 14.0073C30.8455 14.0073 14.0562 30.7966 14.0562 51.5073C14.0562 72.218 30.8455 89.0073 51.5562 89.0073C72.2668 89.0073 89.0562 72.218 89.0562 51.5073C89.0562 30.7966 72.2668 14.0073 51.5562 14.0073Z" fill="#8F5CFB"/>
<path d="M49.7187 44.0073C49.5414 43.4753 49.3034 42.808 49.0047 42.0053H44.5387L43.8387 44.0073H40.3247L44.2447 33.8433H49.3967L53.3447 44.0073H49.7187ZM48.2067 39.8213C47.852 38.8413 47.488 37.8613 47.1147 36.8813L46.7787 35.9713C46.452 36.8207 45.9714 38.104 45.3367 39.8213H48.2067ZM62.2257 36.6293C61.1151 36.5733 60.2937 36.5407 59.7617 36.5313V41.3193C60.3031 41.31 61.1244 41.2773 62.2257 41.2213V44.0073H54.0917V41.2213C55.1651 41.2773 55.9817 41.31 56.5417 41.3193V36.5313C55.9817 36.5407 55.1651 36.5733 54.0917 36.6293V33.8433H62.2257V36.6293ZM38.6934 56.4613H31.0774V57.9313C31.5534 57.9407 32.2674 57.9453 33.2194 57.9453C34.862 57.9453 36.5327 57.9173 38.2314 57.8613V60.6053C36.5327 60.54 34.7407 60.5073 32.8554 60.5073C32.0714 60.5073 31.4787 60.512 31.0774 60.5213V64.0073H27.7734C27.848 62.1967 27.8854 60.5027 27.8854 58.9253C27.8854 57.348 27.848 55.654 27.7734 53.8433H38.6934V56.4613ZM51.0603 57.2313C51.0603 58.0433 50.8596 58.7293 50.4583 59.2893C50.0663 59.8493 49.3896 60.2553 48.4283 60.5073C48.5403 60.6567 48.6196 60.7733 48.6663 60.8573L50.9343 64.0073H47.1263C46.7156 63.242 46.067 62.1593 45.1803 60.7593H43.1223V64.0073H39.8183C39.893 62.1967 39.9303 60.5027 39.9303 58.9253C39.9303 57.348 39.893 55.654 39.8183 53.8433H43.1223V53.8573H45.9923C47.8776 53.8573 49.1936 54.1607 49.9403 54.7673C50.687 55.374 51.0603 56.1953 51.0603 57.2313ZM43.1223 56.5453V58.1413H45.0123C45.8056 58.1413 46.403 58.118 46.8043 58.0713C47.215 58.0153 47.4996 57.9313 47.6583 57.8193C47.817 57.7073 47.8963 57.544 47.8963 57.3293C47.8963 57.124 47.8216 56.9653 47.6723 56.8533C47.523 56.7413 47.243 56.662 46.8323 56.6153C46.4216 56.5687 45.815 56.5453 45.0123 56.5453H43.1223ZM55.4817 61.4453C59.0283 61.4267 61.5997 61.3753 63.1957 61.2913C63.1303 61.674 63.0883 62.0707 63.0697 62.4813C63.0603 62.8827 63.0557 63.3913 63.0557 64.0073H52.1777C52.2523 62.1967 52.2897 60.5027 52.2897 58.9253C52.2897 57.348 52.2523 55.654 52.1777 53.8433H63.0557V56.3773H55.4817V57.7213C55.9297 57.7307 56.5923 57.7353 57.4697 57.7353C58.9537 57.7353 60.489 57.7073 62.0757 57.6513V60.0593C60.489 60.0033 58.9537 59.9753 57.4697 59.9753C56.5923 59.9753 55.9297 59.98 55.4817 59.9893V61.4453ZM67.6223 61.4453C71.169 61.4267 73.7403 61.3753 75.3363 61.2913C75.271 61.674 75.229 62.0707 75.2103 62.4813C75.201 62.8827 75.1963 63.3913 75.1963 64.0073H64.3183C64.393 62.1967 64.4303 60.5027 64.4303 58.9253C64.4303 57.348 64.393 55.654 64.3183 53.8433H75.1963V56.3773H67.6223V57.7213C68.0703 57.7307 68.733 57.7353 69.6103 57.7353C71.0943 57.7353 72.6296 57.7073 74.2163 57.6513V60.0593C72.6296 60.0033 71.0943 59.9753 69.6103 59.9753C68.733 59.9753 68.0703 59.98 67.6223 59.9893V61.4453Z" fill="white"/>
</svg>
