<svg width="108" height="111" viewBox="0 0 108 111" fill="none" xmlns="http://www.w3.org/2000/svg">
<path d="M106.67 44.657C106.414 44.3937 106.094 44.2621 105.742 44.2621H78.8024L97.8391 24.6814C98.095 24.4182 98.223 24.0891 98.223 23.7271C98.223 23.3651 98.095 23.036 97.8391 22.7727L84.8813 9.44476C84.6254 9.1815 84.3054 9.04986 83.9535 9.04986C83.5695 8.98404 83.2816 9.1815 83.0256 9.44476L63.9889 29.0254V1.34925C63.9889 0.592354 63.413 0 62.6772 0L44.3443 0C43.6085 0 43.0326 0.592354 43.0326 1.34925V29.0583L23.9958 9.47767C23.7399 9.2144 23.4199 9.08277 23.068 9.08277C22.7161 9.08277 22.3961 9.2144 22.1402 9.47767L9.18241 22.8057C8.92645 23.0689 8.79848 23.398 8.79848 23.76C8.79848 24.122 8.92645 24.4511 9.18241 24.7143L28.2191 44.295H1.31177C0.5759 44.295 0 44.8873 0 45.6442L0 64.5008C0 65.2577 0.5759 65.8501 1.31177 65.8501H28.2511L9.2144 85.4307C8.95845 85.694 8.83047 86.023 8.83047 86.385C8.83047 86.747 8.95845 87.0761 9.2144 87.3394L22.1722 100.667C22.4281 100.931 22.7481 101.062 23.1 101.062C23.4519 101.062 23.7719 100.931 24.0278 100.667L43.0645 81.0868V108.796C43.0645 109.553 43.6404 110.145 44.3763 110.145H62.7091C63.445 110.145 64.0209 109.553 64.0209 108.796V81.0868L83.0576 100.667C83.3136 100.931 83.6015 101.062 83.9855 101.062C84.3374 101.062 84.6573 100.931 84.9133 100.667L97.8711 87.3394C98.383 86.8129 98.383 85.9572 97.8711 85.4307L78.8344 65.8501H105.774C106.478 65.8501 107.085 65.2577 107.085 64.5008V45.6442C107.085 45.2822 106.957 44.9531 106.702 44.6899L106.67 44.657ZM62.1972 76.5783C61.7173 76.7757 61.3974 77.2694 61.3974 77.8288V107.414H45.6881V77.8288C45.6881 77.2694 45.3681 76.7757 44.8882 76.5783C44.4083 76.3808 43.8324 76.4796 43.4485 76.8745L23.1 97.8043L11.9659 86.385L32.3144 65.4552C32.6983 65.0603 32.7943 64.5008 32.6024 63.9743C32.4104 63.4807 31.9305 63.1516 31.3866 63.1516H2.62355L2.62355 46.9935H31.3866C31.9305 46.9935 32.4104 46.6644 32.6024 46.1707C32.7943 45.6771 32.6983 45.0848 32.3144 44.6899L11.9659 23.76L23.068 12.3078L43.4165 33.2377C43.8004 33.6326 44.3443 33.7313 44.8242 33.5339C45.3042 33.3364 45.6241 32.8428 45.6241 32.2833V2.6985L61.3334 2.6985V32.2833C61.3334 32.8428 61.6533 33.3035 62.1332 33.5339C62.6132 33.7313 63.1891 33.6326 63.573 33.2377L83.9215 12.3078L95.0236 23.76L74.6751 44.6899C74.2911 45.0848 74.1952 45.6442 74.3871 46.1707C74.5791 46.6644 75.059 46.9935 75.6029 46.9935H104.366V63.1516H75.6029C75.059 63.1516 74.5791 63.4807 74.3871 63.9743C74.1952 64.4679 74.2911 65.0603 74.6751 65.4552L95.0236 86.385L83.9215 97.8043L63.573 76.8745C63.1891 76.4796 62.6452 76.3808 62.1652 76.5783H62.1972Z" fill="#8F5CFB"/>
</svg>
