<svg width="85" height="85" viewBox="0 0 85 85" fill="none" xmlns="http://www.w3.org/2000/svg">
<path d="M84.9794 42.0637C84.9506 41.7781 84.8926 41.5011 84.811 41.2341C84.7703 41.1015 84.7225 40.9707 84.6683 40.843C84.5066 40.4621 84.2907 40.1086 84.0324 39.7941C83.2522 38.8489 82.0741 38.2472 80.753 38.2472H58.3635L77.7541 27.0531C79.7874 25.8801 80.4826 23.2809 79.3098 21.2478C78.1367 19.2146 75.5374 18.5192 73.5042 19.6922L54.1136 30.8863L65.3082 11.4965C66.4812 9.46337 65.7858 6.86419 63.7525 5.6912C61.7193 4.51822 59.12 5.21362 57.947 7.24679L46.7523 26.6366V4.24999C46.7523 1.90232 44.8499 0 42.5022 0C40.1544 0 38.252 1.90232 38.252 4.24999V26.6385L27.0576 7.24872C25.8846 5.21556 23.2853 4.5204 21.2521 5.69314C19.2188 6.86613 18.5236 9.46531 19.6964 11.4985L30.891 30.8883L11.5004 19.6941C9.46717 18.5211 6.86788 19.2165 5.69484 21.2497C4.5218 23.2829 5.21724 25.882 7.25049 27.055L26.6411 38.2492H4.24993C3.66353 38.2492 3.10403 38.3681 2.5959 38.5823C1.07102 39.2283 0 40.7379 0 42.4991C0 42.6453 0.00678481 42.7916 0.0220505 42.9343C0.0508858 43.22 0.108798 43.4969 0.190458 43.764C0.231167 43.8965 0.278902 44.0274 0.33318 44.155C0.494803 44.5357 0.710704 44.8895 0.96901 45.204C1.74926 46.1492 2.92738 46.7508 4.24847 46.7508H26.6379L7.24734 57.945C5.21409 59.118 4.51889 61.7171 5.69169 63.7503C6.86473 65.7835 9.46402 66.4786 11.4973 65.3059L30.8879 54.1117L19.6933 73.5015C18.5202 75.5347 19.2157 78.1339 21.2489 79.3069C23.2822 80.4799 25.8814 79.7844 27.0545 77.7513L38.2491 58.3615V80.75C38.2491 83.0977 40.1515 85 42.4993 85C44.847 85 46.7494 83.0977 46.7494 80.75V58.3615L57.9441 77.7513C59.1171 79.7844 61.7164 80.4796 63.7496 79.3069C65.7829 78.1339 66.4781 75.5347 65.3053 73.5015L54.1107 54.1117L73.5013 65.3059C75.5345 66.4789 78.1338 65.7835 79.3068 63.7503C80.4799 61.7171 79.7845 59.118 77.7512 57.945L58.3606 46.7508H80.7501C81.3365 46.7508 81.896 46.6319 82.4041 46.4177C83.929 45.7717 85 44.2621 85 42.5008C85 42.3547 84.9947 42.2065 84.9794 42.0637Z" fill="#EEEEEE"/>
</svg>
