<svg width="267" height="230" viewBox="0 0 267 230" fill="none" xmlns="http://www.w3.org/2000/svg">
<path d="M267 115.973C267 55.3751 218.459 6.34833 156.499 4.36169C155.632 4.33649 154.787 4.34687 153.92 4.35428L152.704 4.36169L151.755 4.35428C151.244 4.35725 150.736 4.3565 150.227 4.35947C140.811 0.930306 124.976 0 117.766 0C52.8295 0 0 51.5894 0 115C0 178.414 52.8302 230 117.766 230C122.201 230 126.849 229.683 132.326 229.016L133.348 229.073C133.978 229.11 134.601 229.153 135.238 229.153C141.183 229.153 147.404 228.611 154.221 227.507C216.433 226.71 267 176.741 267 115.973ZM219.082 45.8119C225.474 53.1654 230.915 61.3068 235.126 70.0384C251.661 104.095 248.23 146.306 226.001 177.18C216.808 190.316 204.414 201.36 190.199 209.27C187.524 210.76 184.775 212.144 181.957 213.42C181.836 213.475 181.714 213.531 181.592 213.585C178.772 214.849 175.883 216 172.933 217.036C172.822 217.075 172.713 217.117 172.602 217.156C171.965 217.377 171.292 217.532 170.649 217.743C170.881 217.63 171.102 217.501 171.334 217.386C172.301 216.908 173.245 216.4 174.196 215.897C175.973 214.959 177.723 213.984 179.438 212.962C196.017 203.166 209.948 189.238 219.63 172.852C238.565 141.503 240.695 101.088 225.102 68.0184C218.796 54.2462 209.677 41.7645 198.471 31.388C196.954 29.9826 195.39 28.6275 193.797 27.2999C193.201 26.804 192.626 26.288 192.02 25.8025C189.818 24.0419 187.555 22.3518 185.22 20.7462C184.722 20.4037 184.199 20.0954 183.695 19.7596C182.402 18.8989 181.108 18.0368 179.777 17.2259C180.429 17.5076 181.095 17.7626 181.739 18.0554C182.754 18.5164 183.765 18.9827 184.763 19.4719C186.511 20.3304 188.221 21.2481 189.912 22.1924C190.788 22.6817 191.678 23.1509 192.539 23.6631C194.589 24.8826 196.581 26.1783 198.537 27.5208C206.207 32.6519 213.015 38.9535 219.082 45.8119ZM5.69332 115C5.69332 54.6553 55.9691 5.5596 117.766 5.5596C125.879 5.5596 140.828 6.67078 148.746 9.7256C148.787 9.74191 148.829 9.73375 148.871 9.74784C148.918 9.7634 148.95 9.79898 148.998 9.81233C196.597 23.2881 229.838 66.5418 229.838 115C229.838 166.378 194.004 210.222 142.703 221.629C142.691 221.632 142.678 221.629 142.666 221.632C139.227 222.391 135.601 223.014 131.91 223.47C131.91 223.47 131.909 223.47 131.91 223.47C126.538 224.128 122.041 224.44 117.765 224.44C55.9691 224.44 5.69332 175.345 5.69332 115ZM191.534 214.928C191.865 214.75 192.175 214.545 192.505 214.364C193.248 213.955 193.965 213.514 194.697 213.09C208.788 205.012 220.904 193.892 230.329 180.885C232.043 178.497 233.668 176.047 235.191 173.531C254.662 141.599 256.554 100.309 239.844 66.8865C234.354 55.579 226.87 45.2574 217.912 36.322C210.371 28.818 201.786 22.2881 192.298 17.0457C232.937 32.4214 261.307 70.8175 261.307 115.975C261.307 160.874 232.255 199.582 191.534 214.928Z" fill="#FFD800"/>
<path d="M184.752 149.697C185.36 148.278 184.677 146.65 183.232 146.056C181.771 145.477 180.118 146.121 179.503 147.54C171.26 166.702 154.395 180.746 133.23 186.073C112.125 191.387 90.4596 187.079 73.8139 174.237C64.6772 167.194 57.4862 157.964 53.0127 147.547C52.4085 146.12 50.7331 145.469 49.2878 146.055C47.8386 146.649 47.1562 148.278 47.7643 149.689C52.6051 160.975 60.3928 170.972 70.2855 178.594C83.2883 188.62 99.0854 193.862 115.443 193.862C121.803 193.862 128.253 193.066 134.647 191.459C157.553 185.689 175.818 170.466 184.752 149.697Z" fill="#FFD800"/>
<path d="M85.221 126.963C89.8964 126.963 93.6865 111.213 93.6865 91.7849C93.6865 72.3565 89.8964 56.6067 85.221 56.6067C80.5455 56.6067 76.7554 72.3565 76.7554 91.7849C76.7554 111.213 80.5455 126.963 85.221 126.963Z" fill="#FFD800"/>
<path d="M147.292 126.963C154.66 126.963 155.757 104.924 155.757 91.7844C155.757 78.6452 154.66 56.6062 147.292 56.6062C139.931 56.6062 138.833 78.6452 138.833 91.7844C138.833 104.924 139.931 126.963 147.292 126.963Z" fill="#FFD800"/>
</svg>
